<svg xmlns="http://www.w3.org/2000/svg" id="Layer_1" data-name="Layer 1" viewBox="0 0 353.2 152.7"><defs><style>      .cls-1 {        fill: #fff;      }      .cls-1, .cls-2, .cls-3 {        stroke-width: 0px;      }      .cls-2 {        fill: #c6e8f9;      }      .cls-3 {        fill: #93d7f6;      }    </style></defs><path class="cls-3" d="M319.41,80.77c-1.66,2.8-3.59,5.43-5.86,7.7-3.33,3.33-7.26,6.04-11.81,7.96-4.55,1.93-9.36,2.89-14.44,2.89s-9.89-.96-14.44-2.89-8.49-4.55-11.81-7.96c-3.33-3.33-6.04-7.26-7.96-11.81-1.93-4.55-2.89-9.36-2.89-14.44s.96-9.89,2.89-14.44,4.55-8.49,7.96-11.81c3.33-3.33,7.26-5.95,11.81-7.96,4.55-1.93,9.36-2.89,14.44-2.89s9.89.96,14.44,2.89c4.55,1.93,8.49,4.55,11.81,7.96,2.1,2.1,3.85,4.38,5.43,6.91h14.7s0-.09-.09-.09c-2.63-6.13-6.21-11.46-10.85-16.1-4.64-4.64-9.98-8.23-16.1-10.85s-12.6-3.94-19.43-3.94-13.48,1.31-19.51,3.94c-6.04,2.63-11.38,6.21-16.01,10.85s-8.23,9.98-10.85,16.1-3.94,12.6-3.94,19.43,1.31,13.48,3.94,19.51c2.63,6.04,6.21,11.29,10.85,15.84,4.64,4.55,9.98,8.14,16.01,10.76,6.04,2.63,12.51,3.94,19.51,3.94s13.3-1.31,19.43-3.94,11.46-6.21,16.1-10.76c4.64-4.55,8.23-9.8,10.85-15.84.18-.35.26-.61.44-.96h-14.61Z"></path><path class="cls-2" d="M222.19,80.77c-1.66,2.8-3.59,5.43-5.86,7.7-3.33,3.33-7.26,6.04-11.81,7.96-4.55,1.93-9.36,2.89-14.44,2.89s-9.89-.96-14.44-2.89-8.49-4.55-11.81-7.96c-3.33-3.33-6.04-7.26-7.96-11.81-1.93-4.55-2.89-9.36-2.89-14.44s.96-9.89,2.89-14.44,4.55-8.49,7.96-11.81c3.33-3.33,7.26-5.95,11.81-7.96,4.55-1.93,9.36-2.89,14.44-2.89s9.89.96,14.44,2.89c4.55,1.93,8.49,4.55,11.81,7.96,2.1,2.1,3.85,4.38,5.43,6.91h14.7s0-.09-.09-.09c-2.63-6.13-6.21-11.46-10.85-16.1-4.64-4.64-9.98-8.23-16.1-10.85s-12.6-3.94-19.43-3.94-13.48,1.31-19.51,3.94c-6.04,2.63-11.38,6.21-16.01,10.85s-8.23,9.98-10.85,16.1-3.94,12.6-3.94,19.43,1.31,13.48,3.94,19.51c2.63,6.04,6.21,11.29,10.85,15.84,4.64,4.55,9.98,8.14,16.01,10.76,6.04,2.63,12.51,3.94,19.51,3.94s13.3-1.31,19.43-3.94,11.46-6.21,16.1-10.76c4.64-4.55,8.23-9.8,10.85-15.84.18-.35.26-.61.44-.96h-14.61Z"></path><path class="cls-3" d="M57.41,82.61c-1.31-1.93-2.36-4.03-3.33-6.21-1.93-4.55-2.89-9.28-2.89-14.35s.96-9.8,2.89-14.35c.96-2.19,2.1-4.29,3.33-6.21v-18.9c-1.66,1.31-3.15,2.63-4.64,4.11-4.64,4.64-8.23,9.98-10.76,16.01-2.63,6.04-3.85,12.51-3.85,19.34s1.31,13.48,3.85,19.43c2.63,6.04,6.21,11.29,10.76,15.93,1.49,1.49,3.06,2.89,4.64,4.11v-18.9Z"></path><path class="cls-1" d="M138.1,97.13v-35.18c0-6.83-1.31-13.3-3.85-19.34-2.63-6.04-6.21-11.38-10.76-16.01-4.64-4.55-9.98-8.23-16.01-10.76-6.04-2.63-12.51-3.85-19.34-3.85s-13.48,1.31-19.43,3.85c-2.01.88-3.94,1.84-5.86,2.98v16.28c3.15-2.98,6.83-5.34,10.94-7.09,4.55-1.93,9.28-2.89,14.35-2.89s9.8.96,14.35,2.89c4.55,1.93,8.49,4.55,11.81,7.88s5.95,7.26,7.88,11.81c1.93,4.55,2.89,9.28,2.89,14.35s-.96,9.8-2.89,14.35c-1.93,4.55-4.55,8.49-7.88,11.81s-7.26,5.95-11.81,7.88c-4.55,1.93-9.28,2.89-14.35,2.89s-9.8-.96-14.35-2.89c-4.11-1.75-7.79-4.11-10.94-7.09v16.28c1.84,1.14,3.76,2.1,5.86,2.98,6.04,2.63,12.51,3.85,19.43,3.85,4.11,0,8.23-.53,12.08-1.58,3.94-1.05,7.7-2.54,11.2-4.46,5.34-2.8,9.89-6.3,13.56-10.41v4.81h0v11.73l13.48.09-.35-15.14Z"></path><path class="cls-3" d="M32.3,75.96c-.88-1.31-1.66-2.71-2.28-4.2-1.31-3.06-1.93-6.3-1.93-9.71s.61-6.65,1.93-9.71c.61-1.49,1.4-2.89,2.28-4.2v-12.86c-1.14.88-2.19,1.75-3.15,2.8-3.15,3.15-5.51,6.74-7.35,10.85-1.75,4.11-2.63,8.49-2.63,13.13s.88,9.1,2.63,13.21c1.75,4.11,4.2,7.7,7.35,10.76.96.96,2.1,1.93,3.15,2.8v-12.86Z"></path><path class="cls-1" d="M129.61,136.6c-.26.35-.53.7-.79,1.05-.44.44-.96.79-1.66,1.05-.61.26-1.31.44-2.01.44s-1.31-.18-2.01-.44c-.61-.26-1.14-.61-1.66-1.05-.44-.44-.79-.96-1.05-1.66-.26-.61-.44-1.31-.44-2.01s.18-1.31.44-2.01c.26-.61.61-1.14,1.05-1.66.44-.44.96-.79,1.66-1.05.61-.26,1.31-.44,2.01-.44s1.31.18,2.01.44c.61.26,1.14.61,1.66,1.05.26.26.53.61.7.96h2.01c-.35-.88-.88-1.58-1.49-2.19s-1.4-1.14-2.19-1.49c-.88-.35-1.75-.53-2.63-.53-.96,0-1.84.18-2.71.53-.79.35-1.58.88-2.19,1.49s-1.14,1.4-1.49,2.19c-.35.88-.53,1.75-.53,2.63,0,.96.18,1.84.53,2.71.35.79.88,1.58,1.49,2.19s1.4,1.14,2.19,1.49,1.75.53,2.71.53,1.84-.18,2.63-.53c.88-.35,1.58-.88,2.19-1.49s1.14-1.31,1.49-2.19q0-.09.09-.09l-2.01.09h0Z"></path><path class="cls-1" d="M193.23,136.6c-.26.35-.53.7-.79,1.05-.44.44-.96.79-1.66,1.05s-1.31.44-2.01.44-1.31-.18-2.01-.44-1.14-.61-1.66-1.05-.79-.96-1.05-1.66c-.26-.61-.44-1.31-.44-2.01s.18-1.31.44-2.01c.26-.61.61-1.14,1.05-1.66.44-.44.96-.79,1.66-1.05.61-.26,1.31-.44,2.01-.44s1.31.18,2.01.44c.61.26,1.14.61,1.66,1.05.26.26.53.61.7.96h2.01c-.35-.88-.88-1.58-1.49-2.19s-1.4-1.14-2.19-1.49c-.88-.35-1.75-.53-2.63-.53-.96,0-1.84.18-2.71.53-.79.35-1.58.88-2.19,1.49s-1.14,1.4-1.49,2.19c-.35.88-.53,1.75-.53,2.63,0,.96.18,1.84.53,2.71.35.79.88,1.58,1.49,2.19s1.4,1.14,2.19,1.49,1.75.53,2.71.53,1.84-.18,2.63-.53c.88-.35,1.58-.88,2.19-1.49s1.14-1.31,1.49-2.19q0-.09.09-.09l-2.01.09h0Z"></path><path class="cls-1" d="M254.83,136.6c-.26.35-.53.7-.79,1.05-.44.44-.96.79-1.66,1.05s-1.31.44-2.01.44-1.31-.18-2.01-.44c-.61-.26-1.14-.61-1.66-1.05-.44-.44-.79-.96-1.05-1.66-.26-.61-.44-1.31-.44-2.01s.18-1.31.44-2.01c.26-.61.61-1.14,1.05-1.66.44-.44.96-.79,1.66-1.05.61-.26,1.31-.44,2.01-.44s1.31.18,2.01.44c.61.26,1.14.61,1.66,1.05.26.26.53.61.7.96h2.01c-.35-.88-.88-1.58-1.49-2.19s-1.4-1.14-2.19-1.49c-.88-.35-1.75-.53-2.63-.53-.96,0-1.84.18-2.71.53-.79.35-1.58.88-2.19,1.49s-1.14,1.4-1.49,2.19c-.35.88-.53,1.75-.53,2.63,0,.96.18,1.84.53,2.71.35.79.88,1.58,1.49,2.19s1.4,1.14,2.19,1.49,1.75.53,2.71.53,1.84-.18,2.63-.53c.88-.35,1.58-.88,2.19-1.49s1.14-1.31,1.49-2.19q0-.09.09-.09l-2.01.09h0Z"></path><path class="cls-1" d="M57.68,135.55v-2.01c.18-1.75.53-2.98,1.05-3.76.53-.7,1.14-1.31,1.93-1.75.53-.35,1.23-.53,2.19-.53.61,0,1.23.09,1.84.35.61.26,1.14.53,1.49.96.35.35.7.96,1.05,1.75.18-.53.61-1.05,1.23-1.75.26-.26.7-.53,1.14-.79.35-.18,1.05-.35,2.28-.53.88,0,1.75.18,2.54.7.79.44,1.4,1.05,1.75,1.84.35.79.53,2.01.53,3.59v6.91h-1.66v-6.91c0-1.4-.09-2.28-.26-2.8-.18-.53-.53-.96-.96-1.23-.44-.35-1.05-.44-1.66-.44-1.23.09-2.28.7-3.24,1.84-.35.44-.61,1.58-.79,3.15v6.48h-1.66v-6.48c0-1.49-.18-2.54-.53-3.15-.35-.53-.79-.96-1.23-1.31s-1.05-.53-1.75-.53c-.79,0-1.4.18-1.93.61-.53.35-.96.96-1.31,1.75s-.44,2.01-.35,3.76v5.34h-1.66v-5.08h0Z"></path><path class="cls-1" d="M93.55,135.9l1.4.7c-.44.88-.96,1.58-1.58,2.1s-1.23.96-2.01,1.23c-.7.26-1.58.44-2.54.44-2.1,0-3.68-.7-4.81-2.01s-1.75-2.89-1.75-4.55c0-1.58.53-3.06,1.49-4.29,1.23-1.58,2.89-2.45,5.08-2.45s3.85.79,5.16,2.45c.88,1.14,1.4,2.63,1.4,4.29h-11.38c0,1.49.53,2.71,1.4,3.68.88.96,2.01,1.4,3.33,1.4.61,0,1.31-.09,1.93-.35.61-.26,1.14-.53,1.58-.88.35-.26.79-.88,1.31-1.75M93.55,132.49c-.18-.88-.53-1.58-.96-2.1-.44-.53-.96-.96-1.66-1.23-.7-.35-1.4-.44-2.19-.44-1.23,0-2.28.44-3.24,1.23-.61.61-1.14,1.49-1.49,2.63l9.54-.09h0Z"></path><path class="cls-1" d="M100.64,134.59v-1.49c.09-.79.26-1.4.53-1.84.53-1.31,1.23-2.28,2.19-2.89.88-.61,1.66-.96,2.28-.96.44,0,.96.18,1.4.44l-.88,1.4c-.7-.26-1.4-.09-2.1.61-.7.7-1.23,1.4-1.49,2.28-.18.7-.26,2.1-.26,4.03v4.29h-1.66v-5.86h0Z"></path><path class="cls-1" d="M111.84,122.51c.35,0,.7.09.96.35.26.26.44.61.44.96s-.18.7-.44.96-.61.44-.96.44-.7-.18-.96-.44-.44-.61-.44-.96.18-.7.44-.96c.26-.18.61-.35.96-.35M110.97,127.76h1.66v12.69h-1.66v-12.69Z"></path><path class="cls-1" d="M155.77,135.64v-1.31c0-.7,0-1.23.09-1.66.18-1.49.53-2.54,1.14-3.24.53-.61,1.14-1.05,1.66-1.4.96-.44,2.01-.61,3.24-.61.96,0,1.84.26,2.63.7.79.53,1.4,1.14,1.75,1.93s.53,2.1.53,3.85v6.56h-1.66v-6.04c0-1.49-.09-2.45-.18-2.98-.18-.88-.61-1.4-1.14-1.75-.61-.35-1.4-.53-2.54-.53-.96,0-1.84.26-2.63.88s-1.14,1.31-1.05,2.36c-.18.61-.26,1.75-.26,3.5v4.64h-1.66l.09-4.9h0Z"></path><rect class="cls-1" x="219.04" y="122.86" width="1.66" height="17.59"></rect><rect class="cls-1" x="226.65" y="122.86" width="1.66" height="17.59"></rect><path class="cls-1" d="M272.68,135.9l1.4.7c-.44.88-.96,1.58-1.58,2.1-.61.53-1.23.96-2.01,1.23-.7.26-1.58.44-2.54.44-2.1,0-3.68-.7-4.81-2.01s-1.75-2.89-1.75-4.55c0-1.58.53-3.06,1.49-4.29,1.23-1.58,2.89-2.45,5.08-2.45s3.85.79,5.16,2.45c.88,1.14,1.4,2.63,1.4,4.29h-11.38c0,1.49.53,2.71,1.4,3.68.88.96,2.01,1.4,3.33,1.4.61,0,1.31-.09,1.93-.35.61-.26,1.14-.53,1.58-.88.35-.26.79-.88,1.31-1.75M272.68,132.49c-.18-.88-.53-1.58-.96-2.1-.44-.53-.96-.96-1.66-1.23-.7-.35-1.4-.44-2.19-.44-1.23,0-2.28.44-3.24,1.23-.61.61-1.14,1.49-1.49,2.63l9.54-.09h0Z"></path><path class="cls-1" d="M280.3,135.64v-1.31c0-.7,0-1.23.09-1.66.18-1.49.53-2.54,1.14-3.24.53-.61,1.14-1.05,1.66-1.4.96-.44,2.01-.61,3.24-.61.96,0,1.84.26,2.63.7.79.53,1.4,1.14,1.75,1.93s.53,2.1.53,3.85v6.56h-1.58v-6.04c0-1.49-.09-2.45-.18-2.98-.18-.88-.61-1.4-1.14-1.75-.61-.35-1.4-.53-2.54-.53-.96,0-1.84.26-2.63.88s-1.14,1.31-1.05,2.36c-.18.61-.26,1.75-.26,3.5v4.64h-1.66v-4.9h0Z"></path><path class="cls-1" d="M302.79,140.01c-.88.35-1.58.44-2.28.44-1.23-.09-2.28-.7-2.98-1.93-.44-.79-.61-1.66-.61-2.54v-13.21h1.66v6.13h3.06v1.4h-2.98v5.34c-.09,1.31.44,2.36,1.31,3.06.79.35,1.58.35,2.36-.09.17.61.35,1.05.44,1.4"></path><path class="cls-1" d="M318.98,135.9l1.4.7c-.44.88-.96,1.58-1.58,2.1s-1.23.96-2.01,1.23c-.7.26-1.58.44-2.54.44-2.1,0-3.68-.7-4.81-2.01s-1.75-2.89-1.75-4.55c0-1.58.53-3.06,1.49-4.29,1.23-1.58,2.89-2.45,5.08-2.45s3.85.79,5.16,2.45c.88,1.14,1.4,2.63,1.4,4.29h-11.38c0,1.49.53,2.71,1.4,3.68.88.96,2.01,1.4,3.33,1.4.61,0,1.31-.09,1.93-.35.61-.26,1.14-.53,1.58-.88.26-.26.79-.88,1.31-1.75M318.98,132.49c-.18-.88-.53-1.58-.96-2.1-.44-.53-.96-.96-1.66-1.23-.7-.35-1.4-.44-2.19-.44-1.23,0-2.28.44-3.24,1.23-.61.61-1.14,1.49-1.49,2.63l9.54-.09h0Z"></path><path class="cls-1" d="M325.98,134.59v-1.49c.09-.79.26-1.4.53-1.84.53-1.31,1.23-2.28,2.19-2.89.88-.61,1.66-.96,2.28-.96.44,0,.96.18,1.4.44l-.88,1.4c-.7-.26-1.4-.09-2.1.61-.7.7-1.23,1.4-1.49,2.28-.18.7-.26,2.1-.26,4.03v4.29h-1.66v-5.86h0Z"></path><path class="cls-1" d="M51.73,139.22v-.53c0-.96,0-2.54-.09-4.9,0-1.75-.61-3.33-1.75-4.55-1.31-1.4-2.89-2.1-4.9-2.1s-3.59.7-4.9,2.1c-1.14,1.31-1.75,2.8-1.75,4.55s.61,3.33,1.84,4.64,2.8,2.01,4.73,2.01c2.36-.18,4.03-1.14,4.9-2.8v2.89h1.84l.09-1.31ZM49.71,134.59c-1.23,3.41-3.41,4.73-6.39,4.03-1.23-.61-2.01-1.31-2.54-2.19s-.79-1.75-.79-2.63c0-1.4.53-2.63,1.49-3.68.96-.96,2.1-1.49,3.5-1.49,1.31,0,2.54.53,3.41,1.49.35.44.7.79.88,1.31.35,1.05.53,2.1.44,3.15"></path><path class="cls-1" d="M151.14,139.22v-.53c0-.96-.09-2.54-.09-4.9,0-1.75-.61-3.33-1.75-4.55-1.31-1.4-2.89-2.1-4.9-2.1s-3.59.7-4.9,2.1c-1.14,1.31-1.75,2.8-1.75,4.55s.61,3.33,1.84,4.64c1.23,1.31,2.8,2.01,4.73,2.01,2.36-.18,4.03-1.14,4.9-2.8v2.89h1.84l.09-1.31ZM149.12,134.59c-1.23,3.41-3.41,4.73-6.39,4.03-1.23-.61-2.01-1.31-2.54-2.19-.53-.88-.79-1.75-.79-2.63,0-1.4.53-2.63,1.49-3.68.96-.96,2.1-1.49,3.5-1.49s2.54.53,3.41,1.49c.35.44.7.79.88,1.31.35,1.05.53,2.1.44,3.15"></path><path class="cls-1" d="M213.62,139.22v-.53c0-.96-.09-2.54-.09-4.9,0-1.75-.61-3.33-1.75-4.55-1.31-1.4-2.89-2.1-4.9-2.1s-3.59.7-4.9,2.1c-1.14,1.31-1.75,2.8-1.75,4.55s.61,3.33,1.84,4.64c1.23,1.31,2.8,2.01,4.73,2.01,2.36-.18,4.03-1.14,4.9-2.8v2.89h1.84l.09-1.31ZM211.6,134.59c-1.23,3.41-3.41,4.73-6.39,4.03-1.23-.61-2.01-1.31-2.54-2.19-.53-.88-.79-1.75-.79-2.63,0-1.4.53-2.63,1.49-3.68.96-.96,2.1-1.49,3.5-1.49,1.31,0,2.54.53,3.41,1.49.35.44.7.79.88,1.31.44,1.05.53,2.1.44,3.15"></path></svg>